<?xml version="1.0" standalone="no"?>
<!DOCTYPE svg PUBLIC "-//W3C//DTD SVG 20010904//EN"
 "http://www.w3.org/TR/2001/REC-SVG-20010904/DTD/svg10.dtd">
<svg version="1.0" xmlns="http://www.w3.org/2000/svg"
 width="500.000000pt" height="500.000000pt" viewBox="0 0 500.000000 500.000000"
 preserveAspectRatio="xMidYMid meet">
<metadata>
Created by potrace 1.14, written by Peter Selinger 2001-2017
</metadata>
<g transform="translate(0.000000,500.000000) scale(0.100000,-0.100000)"
fill="#000000" stroke="none">
<path d="M0 2500 l0 -2500 2500 0 2500 0 0 2500 0 2500 -2500 0 -2500 0 0
-2500z m2527 2110 c-4 -97 -11 -243 -17 -326 -5 -82 -11 -243 -14 -359 -5
-255 -13 -288 -74 -283 -35 3 -38 6 -49 48 -27 106 -6 653 32 834 47 223 73
284 113 268 13 -4 14 -32 9 -182z m164 -888 c56 -36 97 -82 149 -171 38 -64
43 -79 47 -153 5 -77 3 -86 -20 -120 -26 -37 -26 -37 -6 -62 12 -15 19 -40 19
-65 0 -41 0 -41 -37 -41 -21 0 -45 8 -56 18 -18 15 -18 13 3 -28 12 -25 26
-47 31 -50 24 -16 286 -260 329 -306 9 -11 43 -41 74 -69 112 -97 146 -135
146 -159 0 -20 11 -27 71 -49 83 -31 114 -49 289 -171 33 -24 117 -103 186
-177 48 -51 121 -188 128 -239 17 -124 24 -244 15 -267 -8 -22 -7 -24 8 -18
88 37 171 45 248 24 40 -11 95 -61 121 -111 35 -68 27 -163 -21 -228 -31 -42
-31 -53 -1 -70 14 -7 42 -40 63 -74 33 -53 38 -71 41 -132 7 -125 -39 -234
-98 -234 -48 0 -53 17 -46 148 6 106 5 120 -13 149 -11 18 -34 39 -50 48 -28
14 -34 14 -87 -10 -68 -30 -70 -30 -119 -5 -47 24 -55 35 -55 78 0 24 9 41 40
71 41 39 73 51 141 51 36 0 40 3 65 51 28 56 27 86 -6 119 -25 25 -73 25 -165
1 l-70 -19 3 -43 c6 -94 -57 -390 -102 -476 -9 -18 -40 -50 -69 -72 -57 -44
-267 -151 -295 -151 -9 0 -62 -21 -117 -46 -55 -25 -115 -50 -134 -56 -19 -5
-44 -16 -55 -23 -41 -25 -371 -108 -504 -126 -42 -6 -226 -12 -408 -13 l-331
-2 -50 -36 c-27 -20 -61 -39 -74 -43 -13 -4 -31 -13 -39 -21 -8 -7 -47 -27
-85 -44 -39 -18 -94 -43 -124 -57 -75 -34 -128 -29 -154 14 -17 30 -17 34 -2
63 8 16 24 35 34 42 17 10 17 15 -10 85 -16 41 -34 96 -41 121 -6 26 -19 53
-27 60 -40 31 -118 80 -141 87 -13 4 -36 15 -50 25 -14 9 -44 30 -68 45 -23
15 -56 49 -73 75 l-31 47 -101 6 c-112 5 -277 45 -308 73 -22 20 -25 50 -5 57
8 3 89 9 180 13 l166 7 0 29 c0 31 38 78 64 78 24 0 74 -49 88 -85 6 -19 17
-35 24 -35 6 0 24 -10 39 -21 22 -18 26 -27 21 -51 -8 -40 23 -83 72 -99 20
-6 61 -27 90 -45 29 -19 56 -34 60 -34 5 0 19 32 31 72 26 81 56 128 82 128
27 0 30 -24 28 -197 -1 -87 4 -182 10 -212 12 -58 58 -151 75 -151 22 0 156
72 156 84 0 21 44 56 95 75 34 13 74 44 141 111 52 52 94 99 94 105 0 6 15 29
33 51 18 21 40 50 49 63 l16 23 17 -33 c10 -19 24 -42 33 -51 13 -15 13 -24 2
-63 -15 -52 -81 -159 -119 -193 l-26 -23 215 6 c232 7 458 32 567 64 37 10 83
22 101 26 l34 7 -31 19 c-27 16 -31 24 -31 62 0 30 8 56 24 80 13 19 27 46 31
58 4 13 13 31 20 39 8 8 23 38 35 65 20 44 22 69 24 210 l1 160 -32 72 c-38
81 -39 89 -18 97 49 18 153 -72 195 -168 51 -120 0 -419 -95 -556 -27 -39 -65
-107 -65 -116 0 -6 84 27 114 45 17 10 42 22 56 26 29 8 157 61 182 75 10 6
26 10 36 10 10 0 38 11 63 24 24 13 69 37 99 53 86 46 114 100 135 257 4 28
15 83 26 125 21 83 24 179 9 366 -17 226 -48 279 -289 492 -36 32 -91 65 -186
112 -104 50 -144 65 -207 76 -49 8 -95 47 -104 88 -3 17 -15 44 -25 59 -26 36
-24 52 4 44 87 -25 86 -23 -45 105 -70 68 -148 142 -173 164 -87 74 -163 152
-181 184 -11 18 -26 46 -35 62 -16 29 -17 26 -13 -78 3 -59 10 -166 16 -236
10 -120 12 -129 34 -139 18 -8 24 -19 24 -42 0 -17 11 -48 25 -68 31 -46 31
-48 -4 -48 l-29 0 13 -47 c7 -27 20 -65 29 -85 20 -47 20 -67 -1 -90 -48 -53
-119 20 -138 143 -15 100 -19 106 -88 118 -34 6 -92 13 -129 17 l-66 7 -4
-102 c-3 -110 -10 -124 -58 -119 -17 2 -31 14 -43 38 -16 30 -18 50 -13 141 5
91 4 112 -11 139 -14 25 -15 34 -5 37 9 4 12 58 12 224 0 213 -1 219 -20 219
-15 0 -27 -15 -46 -57 -15 -32 -44 -94 -65 -138 -21 -44 -41 -91 -45 -105 -3
-14 -19 -51 -35 -83 -16 -32 -31 -71 -33 -85 -7 -55 -20 -89 -57 -154 -22 -36
-39 -71 -39 -77 0 -15 -51 -51 -73 -51 -18 0 -19 5 -14 65 l6 65 -24 -5 c-14
-3 -37 -8 -52 -11 -16 -3 -65 -12 -111 -19 -53 -9 -102 -24 -135 -43 -29 -16
-99 -50 -157 -76 -183 -83 -174 -75 -243 -206 -41 -79 -117 -363 -117 -441 0
-11 12 -19 35 -23 42 -8 95 -51 95 -77 0 -11 -12 -32 -27 -46 l-28 -26 -142 6
-142 6 16 -37 c20 -47 53 -205 53 -253 0 -49 -25 -106 -50 -114 -35 -11 -57 4
-81 58 -21 47 -23 69 -25 234 -3 212 -15 191 120 219 l88 19 -7 125 c-9 169 5
267 54 373 21 45 41 90 44 99 13 38 84 117 120 134 20 9 42 23 48 30 6 7 43
25 82 40 40 15 93 40 118 55 68 40 131 66 212 88 78 21 247 44 286 39 22 -3
27 3 43 55 10 32 34 92 53 134 19 41 35 79 35 83 0 5 18 45 40 89 60 119 60
130 6 163 -59 35 -76 88 -51 154 9 24 20 44 24 44 4 0 27 16 50 37 49 41 128
64 293 85 74 9 101 9 110 0 15 -15 1 -31 -49 -56 -21 -11 -53 -28 -71 -39 -33
-19 -33 -19 -14 -41 26 -28 42 -60 42 -84 0 -27 51 -35 157 -23 57 6 102 17
142 37 55 26 60 32 63 64 3 30 6 35 26 33 30 -4 29 19 -7 98 -22 49 -47 81
-100 130 -57 53 -71 72 -71 96 0 16 5 34 12 41 21 21 81 14 129 -16z m-804
-2024 c-6 -61 -76 -208 -144 -303 -47 -65 -53 -90 -23 -100 11 -4 40 -25 65
-48 24 -23 56 -51 70 -62 18 -14 28 -33 32 -62 7 -52 -8 -73 -50 -73 -31 0
-58 21 -166 123 l-53 51 -27 -30 c-14 -17 -42 -52 -61 -77 -19 -25 -47 -52
-62 -61 -54 -33 -118 -12 -118 38 0 28 35 102 54 113 7 4 29 30 47 57 19 26
38 54 43 61 7 9 -21 43 -97 120 -59 60 -107 112 -107 117 0 25 106 -18 161
-65 20 -18 54 -42 74 -55 l38 -23 24 23 c14 13 32 37 41 54 46 86 162 220 207
240 53 23 58 20 52 -38z m1801 -327 c7 -4 24 -38 38 -75 31 -87 34 -204 5
-230 -26 -24 -60 -17 -85 17 -19 25 -21 42 -20 147 1 138 15 171 62 141z
m-817 -198 c6 -16 9 -63 6 -108 -4 -69 -11 -91 -46 -160 -22 -44 -41 -84 -41
-89 0 -5 -8 -18 -17 -29 -10 -10 -34 -49 -54 -85 -40 -74 -69 -96 -115 -83
-23 6 -31 15 -38 44 -8 32 -6 42 27 96 21 32 37 62 37 65 0 3 15 30 34 59 19
29 39 72 45 95 6 22 26 67 44 99 18 32 39 73 46 91 18 42 56 45 72 5z"/>
<path d="M2120 3290 c-19 -15 -21 -20 -9 -20 16 0 46 27 38 35 -2 2 -15 -5
-29 -15z"/>
<path d="M2542 3080 c0 -14 2 -19 5 -12 2 6 2 18 0 25 -3 6 -5 1 -5 -13z"/>
<path d="M2413 3029 c-7 -15 -15 -43 -18 -63 -8 -42 -20 -53 -41 -35 -13 10
-14 -6 -12 -132 l3 -144 55 -12 c30 -6 79 -12 108 -12 50 -1 52 0 52 27 0 15
-3 44 -6 64 l-6 37 -18 -22 c-15 -18 -21 -20 -43 -10 -34 16 -46 63 -56 212
-6 99 -9 112 -18 90z"/>
</g>
</svg>
